<?xml version="1.0" encoding="UTF-8"?>
<svg id="Ebene_1" data-name="Ebene 1" xmlns="http://www.w3.org/2000/svg" viewBox="0 0 164.69 164.53">
  <defs>
    <style>
      .cls-1 {
        fill: #3dcfb6;
      }
    </style>
  </defs>
  <path class="cls-1" d="M82.35,164.29C37.08,164.29.24,127.46.24,82.19S37.08.08,82.35.08s82.11,36.83,82.11,82.11-36.83,82.11-82.11,82.11ZM82.35,12.08C43.69,12.08,12.24,43.53,12.24,82.19s31.45,70.11,70.11,70.11,70.11-31.45,70.11-70.11S121.01,12.08,82.35,12.08Z"/>
  <path class="cls-1" d="M83.85,74.15l-20.86-20.86c-2.24-2.24-5.87-2.24-8.1,0h0c-2.24,2.24-2.24,5.87,0,8.1l16.81,16.81c2.24,2.24,2.24,5.87,0,8.1l-16.81,16.81c-2.24,2.24-2.24,5.87,0,8.1h0c2.24,2.24,5.87,2.24,8.1,0l20.86-20.86,4.05-4.05c2.24-2.24,2.24-5.87,0-8.1l-4.05-4.05Z"/>
  <path class="cls-1" d="M80.84,90.67l20.86,20.86c2.24,2.24,5.87,2.24,8.1,0h0c2.24-2.24,2.24-5.87,0-8.1l-16.81-16.81c-2.24-2.24-2.24-5.87,0-8.1l16.81-16.81c2.24-2.24,2.24-5.87,0-8.1h0c-2.24-2.24-5.87-2.24-8.1,0l-20.86,20.86-4.05,4.05c-2.24,2.24-2.24,5.87,0,8.1l4.05,4.05Z"/>
</svg>