<?xml version="1.0" encoding="UTF-8"?>
<svg id="Ebene_1" data-name="Ebene 1" xmlns="http://www.w3.org/2000/svg" viewBox="0 0 164.69 164.53">
  <defs>
    <style>
      .cls-1 {
        fill: #3dcfb6;
      }
    </style>
  </defs>
  <path class="cls-1" d="M82.35,164.29C37.08,164.29.24,127.46.24,82.19S37.08.08,82.35.08s82.11,36.83,82.11,82.11-36.83,82.11-82.11,82.11ZM82.35,12.08C43.69,12.08,12.24,43.53,12.24,82.19s31.45,70.11,70.11,70.11,70.11-31.45,70.11-70.11S121.01,12.08,82.35,12.08Z"/>
  <path class="cls-1" d="M101.82,72.84l-24.25-24.25c-2.6-2.6-6.82-2.6-9.42,0h0c-2.6,2.6-2.6,6.82,0,9.42l19.54,19.54c2.6,2.6,2.6,6.82,0,9.42l-19.54,19.54c-2.6,2.6-2.6,6.82,0,9.42h0c2.6,2.6,6.82,2.6,9.42,0l24.25-24.25,4.71-4.71c2.6-2.6,2.6-6.82,0-9.42l-4.71-4.71Z"/>
</svg>