<svg width="38" height="38" viewBox="0 0 38 38" fill="none" xmlns="http://www.w3.org/2000/svg">
<path d="M19 0C8.48667 0 0 8.48667 0 19C0 29.5133 8.48667 38 19 38C29.5133 38 38 29.5133 38 19C38 8.48667 29.5133 0 19 0ZM8.48667 6.96667C8.99333 6.58667 9.62667 6.33333 10.1333 6.33333C10.64 6.33333 11.4 6.58667 11.78 6.96667C12.16 7.47333 12.4133 7.98 12.4133 8.61333C12.4133 9.24667 12.16 9.88 11.6533 10.26C11.4 10.7667 10.7667 11.02 10.1333 11.02C9.5 11.02 8.86667 10.7667 8.48667 10.3867C8.10667 9.88 7.85333 9.24667 7.85333 8.61333C7.85333 7.98 8.10667 7.47333 8.48667 6.96667ZM12.54 27.36H7.85333V12.7933H12.54V27.36ZM30.1467 27.36H25.46V19.6333C25.46 14.9467 19.8867 15.3267 19.8867 19.6333V27.36H15.3267V12.7933H20.0133V14.6933C21.9133 11.1467 30.2733 10.8933 30.2733 18.1133V27.36H30.1467Z" fill="#3DCFB6"/>
</svg>
