<?xml version="1.0" encoding="UTF-8"?>
<svg id="Ebene_1" data-name="Ebene 1" xmlns="http://www.w3.org/2000/svg" viewBox="0 0 264.59 383.28">
  <defs>
    <style>
      .cls-1 {
        fill: #3dcfb6;
      }
    </style>
  </defs>
  <path class="cls-1" d="M216.76,13.68H50c-16.6,0-30.05,13.46-30.05,30.05v298.6c0,16.6,13.46,30.05,30.05,30.05h166.76c16.6,0,30.05-13.46,30.05-30.05V43.74c0-16.6-13.46-30.05-30.05-30.05ZM225.67,334.27c0,11.26-1.49,24.5-14.68,24.5H55.77c-8.11,0-14.68-10.97-14.68-24.5v-47.95h184.58v47.95ZM42.59,265.33V91.05h181.59v174.29H42.59ZM225.67,74.6H41.09v-28.73c0-8.11,6.57-14.68,14.68-14.68h155.22c8.11,0,14.68,6.57,14.68,14.68v28.73Z"/>
  <circle class="cls-1" cx="133.38" cy="321.15" r="16.42"/>
</svg>