<?xml version="1.0" encoding="UTF-8"?>
<svg id="Ebene_1" data-name="Ebene 1" xmlns="http://www.w3.org/2000/svg" viewBox="0 0 800 800">
  <defs>
    <style>
      .cls-1 {
        fill: #fff;
        fill-rule: evenodd;
      }
    </style>
  </defs>
  <g id="SVGRepo_iconCarrier" data-name="SVGRepo iconCarrier">
    <g id="Page-1">
      <g id="Dribbble-Light-Preview">
        <g id="icons">
          <path id="javascript-_155_" data-name="javascript-[#155]" class="cls-1" d="M613.12,737.29c-69.8,0-114.92-33.28-136.92-76.8h0l61.2-35.45c16.12,26.33,37.04,45.64,74.12,45.64,31.12,0,51-15.57,51-37.05,0-32.3-43.12-44.96-73.56-57.99-54.24-23.09-90.24-52.09-90.24-113.32,0-56.37,42.96-99.32,110.12-99.32,47.76,0,82.16,16.64,106.84,60.12l-58.52,37.6c-12.88-23.09-26.84-32.21-48.32-32.21s-36,13.96-36,32.21c0,22.56,13.96,31.68,46.2,45.64,67.56,28.95,118.68,51.72,118.68,126.19,0,67.68-53.16,104.73-124.6,104.73h0ZM440,623.96c0,77.87-47.96,119.04-114.56,119.04-60.16,0-96.2-23.01-113.92-63.01h-1.04l61.16-42.75c11.8,20.92,22.44,35.76,48.2,35.76s40.16-12.52,40.16-50.08v-262.93h80v263.96ZM0,800h800V0H0v800Z"/>
        </g>
      </g>
    </g>
  </g>
</svg>