<?xml version="1.0" encoding="UTF-8"?>
<svg id="Ebene_1" data-name="Ebene 1" xmlns="http://www.w3.org/2000/svg" viewBox="0 0 800 800">
  <defs>
    <style>
      .cls-1 {
        fill: #fff;
      }
    </style>
  </defs>
  <g id="SVGRepo_iconCarrier" data-name="SVGRepo iconCarrier">
    <g id="_2069a460dcf28295e231f3111e037552" data-name="2069a460dcf28295e231f3111e037552">
      <path class="cls-1" d="M648,28H152c-68.2,0-124,55.8-124,124v496c0,68.2,55.8,124,124,124h496c68.2,0,124-55.8,124-124V152c0-68.2-55.8-124-124-124ZM384.46,406.59c-25.82,25.82-66.41,37.95-112.26,37.95-12.12,0-23.19-.53-31.62-2.11v133.87h-64.29V225.81c23.19-4.22,55.34-7.38,99.08-7.38,47.44,0,82.22,10.01,104.89,28.99,21.08,17.39,34.78,45.33,34.78,78.53,0,33.73-10.54,61.66-30.57,80.64ZM519.36,581.57c-31.1,0-59.03-7.38-78-17.92l12.65-46.91c14.76,8.96,42.69,18.45,65.88,18.45,28.46,0,41.11-11.6,41.11-28.46s-10.54-26.35-42.16-37.42c-50.07-17.39-71.15-44.8-70.62-74.84,0-45.33,37.42-80.64,96.97-80.64,28.46,0,53.23,7.38,67.99,15.28l-12.65,45.85c-11.07-6.32-31.63-14.76-54.29-14.76s-35.84,11.07-35.84,26.88,12.12,24.25,44.8,35.84c46.38,16.86,67.99,40.58,68.52,78.53,0,46.38-36.36,80.11-104.35,80.11ZM350.21,328.58c0,41.64-29.52,65.35-78,65.35-13.18,0-23.72-.53-31.62-2.63v-120.17c6.85-1.58,19.5-3.16,37.42-3.16,44.8,0,72.2,21.08,72.2,60.61Z"/>
    </g>
  </g>
</svg>