<?xml version="1.0" encoding="UTF-8"?>
<svg id="Ebene_1" data-name="Ebene 1" xmlns="http://www.w3.org/2000/svg" viewBox="0 0 800 800">
  <defs>
    <style>
      .cls-1 {
        fill: #fff;
      }
    </style>
  </defs>
  <g id="SVGRepo_iconCarrier" data-name="SVGRepo iconCarrier">
    <g id="_2069a460dcf28295e231f3111e03585e" data-name="2069a460dcf28295e231f3111e03585e">
      <path class="cls-1" d="M358.2,344.07l28.24,88.43h-92.16l27.7-88.43c6.4-21.31,11.72-46.35,17.04-67.12h1.07c5.33,20.78,11.19,45.28,18.11,67.12ZM776,149.33v501.33c0,68.93-56.4,125.33-125.33,125.33H149.33c-68.93,0-125.33-56.4-125.33-125.34V149.33c0-68.93,56.4-125.33,125.33-125.33h501.33c68.93,0,125.33,56.4,125.33,125.33ZM500.43,583.78l-116.67-359.04h-83.63l-115.06,359.04h67.65l30.9-101.75h114l32.5,101.75h70.32ZM611.21,324.35h-66.06v259.43h66.06v-259.43ZM614.93,251.91c-.53-20.24-14.38-35.69-36.76-35.69s-36.76,15.45-36.76,35.69,14.38,35.16,36.22,35.16c22.91,0,37.29-15.45,37.29-35.16Z"/>
    </g>
  </g>
</svg>