<?xml version="1.0" encoding="UTF-8"?>
<svg id="Ebene_1" data-name="Ebene 1" xmlns="http://www.w3.org/2000/svg" viewBox="0 0 800 800">
  <defs>
    <style>
      .cls-1 {
        fill: #fff;
      }
    </style>
  </defs>
  <g id="SVGRepo_iconCarrier" data-name="SVGRepo iconCarrier">
    <path class="cls-1" d="M471.85,248.38l-56.85-108.77c-2.9-5.43-8.52-9.07-15-9.07s-12.1,3.62-14.95,8.98l-.05.1-249.62,447.35L471.85,248.38ZM671.3,630.05l-70.3-437.38c-1.3-8.12-8.27-14.28-16.67-14.28-4.72,0-8.97,1.93-12.05,5.05h0l-443.6,446.63,245.43,138.3c7.15,4.08,15.7,6.5,24.8,6.5s17.68-2.4,25.05-6.62l-.25.12,247.6-138.32ZM146.62,514.73L220.5,39.53c1.27-8.2,8.28-14.43,16.75-14.43,6.45,0,12.07,3.6,14.93,8.92l.05.1,79.45,149.05-185.05,331.55Z"/>
  </g>
</svg>