<?xml version="1.0" encoding="UTF-8"?>
<svg id="Ebene_1" data-name="Ebene 1" xmlns="http://www.w3.org/2000/svg" viewBox="0 0 800 800">
  <defs>
    <style>
      .cls-1 {
        fill: #fff;
        stroke: #fff;
        stroke-miterlimit: 100;
        stroke-width: 0px;
      }
    </style>
  </defs>
  <g id="SVGRepo_iconCarrier" data-name="SVGRepo iconCarrier">
    <path class="cls-1" d="M0,400v400h800V0H0v400ZM644.65,368.1c20.32,5.08,35.8,14.2,50.13,28.9,7.3,7.8,18.23,22.12,19.15,25.65.25,1.05-34.5,24.35-55.6,37.38-.78.52-3.9-2.72-7.3-7.82-10.27-14.97-21.1-21.47-37.62-22.65-24.22-1.57-39.85,11.08-39.73,32.3-.12,5.2,1.05,10.42,3.38,14.98,5.35,11.08,15.37,17.7,46.35,31.13,57.3,24.6,81.77,40.88,97,63.92,17.05,25.78,20.83,66.93,9.38,97.65-12.75,33.2-44.27,55.85-88.55,63.28-13.68,2.48-46.22,2.08-60.95-.65-32.15-5.73-62.63-21.62-81.38-42.45-7.43-8.07-21.75-29.3-20.83-30.73.4-.52,3.65-2.6,7.3-4.7s17.05-9.9,29.7-17.2l23.05-13.4,4.83,7.15c6.77,10.27,21.47,24.35,30.35,29.02,25.52,13.55,60.55,11.6,77.87-3.9,7.03-5.85,10.95-14.85,10.42-23.95,0-9.25-1.18-13.4-6-20.32-6.25-8.85-18.87-16.4-54.95-32.03-41.27-17.85-59.12-28.77-75.25-46.35-10.15-11.6-17.7-25.25-22-39.98-3-11.32-3.77-39.73-1.42-51.05,8.48-39.97,38.68-67.7,82.03-75.9,14.07-2.73,46.88-1.7,60.68,1.7l-.03.02ZM456.9,401.57l.25,32.67h-104.17v295.98h-73.7v-295.98h-104.02v-32.03c0-17.85.4-32.68.9-33.07.4-.52,63.67-.78,140.5-.65l139.85.4.4,32.68Z"/>
  </g>
</svg>