<?xml version="1.0" encoding="UTF-8"?>
<svg id="Camada_1" data-name="Camada 1" xmlns="http://www.w3.org/2000/svg" viewBox="0 0 800 800">
  <defs>
    <style>
      .cls-1 {
        fill: #fff;
      }
    </style>
  </defs>
  <path class="cls-1" d="M494.89,313.02c5.27,7.91,10.54,15.81,15.81,26.36,5.27,7.91,10.54,18.45,15.81,26.36,5.27-13.18,10.54-28.99,15.81-44.81-15.81-2.64-31.63-5.27-47.44-7.91Z"/>
  <path class="cls-1" d="M526.51,434.26c-5.27,7.91-10.54,18.45-15.81,26.36-5.27,10.54-10.54,18.45-15.81,26.36l47.44-7.91c-5.27-15.81-10.54-28.99-15.81-44.81Z"/>
  <path class="cls-1" d="M405.27,278.76h31.63c-10.54-13.18-21.09-26.36-31.63-36.9-10.54,10.54-21.09,23.72-31.63,36.9h31.63Z"/>
  <path class="cls-1" d="M302.48,339.38c5.27-7.91,10.54-18.45,15.81-26.36-15.81,2.64-31.63,5.27-47.44,7.91,5.27,13.18,10.54,28.99,15.81,44.81,2.64-7.91,7.91-18.45,15.81-26.36Z"/>
  <path class="cls-1" d="M552.87,291.94c2.64-10.54,2.64-23.72,5.27-34.26,5.27-44.81-2.64-79.07-18.45-89.61-2.64-2.64-7.91-2.64-13.18-2.64-23.72,0-60.62,18.45-97.52,55.35,15.81,15.81,31.63,36.9,47.44,57.99,26.36,2.64,52.71,7.91,76.44,13.18Z"/>
  <path class="cls-1" d="M355.19,492.25c15.81,2.64,34.26,2.64,52.71,2.64s34.26-2.64,52.71-2.64c7.91-15.81,18.45-28.99,26.36-44.81,7.91-15.81,18.45-31.63,28.99-47.44-7.91-15.81-15.81-31.63-23.72-47.44-10.54-15.81-18.45-31.63-28.99-44.81-18.45-2.64-34.26-2.64-52.71-2.64s-36.9,2.64-52.71,2.64c-10.54,13.18-21.09,28.99-28.99,44.81-7.91,15.81-15.81,31.63-23.72,47.44,7.91,15.81,15.81,31.63,23.72,47.44,7.91,15.81,15.81,31.63,26.36,44.81ZM407.91,344.65c31.63,0,55.35,23.72,55.35,55.35s-23.72,55.35-55.35,55.35-55.35-23.72-55.35-55.35,23.72-55.35,55.35-55.35Z"/>
  <path class="cls-1" d="M262.94,294.57c23.72-5.27,50.08-10.54,76.44-13.18,15.81-21.09,31.63-39.54,47.44-57.99-39.54-39.54-76.44-57.99-100.16-57.99-5.27,0-10.54,0-13.18,2.64-18.45,10.54-23.72,44.81-18.45,89.61,0,10.54,2.64,23.72,7.91,36.9Z"/>
  <path class="cls-1" d="M315.66,486.98c-5.27-7.91-10.54-15.81-15.81-26.36-5.27-7.91-10.54-18.45-15.81-26.36-5.27,15.81-10.54,28.99-15.81,44.81,15.81,2.64,31.63,5.27,47.44,7.91Z"/>
  <path class="cls-1" d="M605.59,339.38c-10.54-2.64-21.09-7.91-34.26-10.54-5.27,21.09-15.81,47.44-26.36,71.16,10.54,23.72,18.45,47.44,26.36,71.16,13.18-5.27,23.72-7.91,34.26-13.18,42.17-15.81,68.53-39.54,68.53-57.99,0-21.09-26.36-42.17-68.53-60.62Z"/>
  <path class="cls-1" d="M663.57,31H136.43c-57.99,0-105.43,47.44-105.43,105.43v527.14c0,57.99,47.44,105.43,105.43,105.43h527.14c57.99,0,105.43-47.44,105.43-105.43V136.43c0-57.99-47.44-105.43-105.43-105.43ZM576.59,500.16c18.45,76.44,10.54,137.06-23.72,158.14-7.91,5.27-18.45,7.91-28.99,7.91-31.63,0-76.44-23.72-118.61-65.89-42.17,42.17-84.34,65.89-118.61,65.89-10.54,0-21.09-2.64-28.99-7.91-36.9-21.09-42.17-81.71-23.72-158.14-73.8-23.72-123.88-57.99-123.88-100.16s50.08-76.44,123.88-100.16c-18.45-76.44-10.54-137.06,23.72-155.51,7.91-5.27,18.45-7.91,28.99-7.91,34.26,0,76.44,23.72,121.24,65.89,42.17-42.17,84.34-65.89,118.61-65.89,10.54,0,18.45,2.64,28.99,7.91,34.26,18.45,42.17,79.07,23.72,155.51,73.8,23.72,123.88,57.99,123.88,100.16,0,39.54-50.08,76.44-126.51,100.16Z"/>
  <path class="cls-1" d="M550.24,502.79c-21.09,7.91-47.44,10.54-73.8,13.18-15.81,23.72-34.26,42.17-50.08,60.62,39.54,39.54,76.44,57.99,100.16,57.99,5.27,0,10.54,0,13.18-2.64,18.45-10.54,23.72-44.81,18.45-89.61-2.64-10.54-5.27-23.72-7.91-39.54Z"/>
  <path class="cls-1" d="M405.27,521.24h-31.63c10.54,13.18,21.09,26.36,31.63,36.9,10.54-10.54,21.09-23.72,31.63-36.9h-31.63Z"/>
  <path class="cls-1" d="M262.94,505.43c-5.27,13.18-5.27,26.36-7.91,36.9-5.27,44.81,2.64,79.07,18.45,89.61,2.64,2.64,7.91,2.64,13.18,5.27,23.72,0,60.62-21.09,100.16-57.99-18.45-18.45-34.26-39.54-50.08-60.62-26.36-2.64-50.08-7.91-73.8-13.18Z"/>
  <path class="cls-1" d="M241.86,326.2c-13.18,2.64-23.72,5.27-34.26,10.54-42.17,18.45-68.53,42.17-68.53,60.62,0,21.09,26.36,42.17,68.53,60.62,10.54,5.27,21.09,10.54,34.26,10.54,5.27-23.72,15.81-47.44,26.36-71.16-10.54-23.72-18.45-47.44-26.36-71.16Z"/>
</svg>