<?xml version="1.0" encoding="UTF-8"?>
<svg id="Ebene_1" data-name="Ebene 1" xmlns="http://www.w3.org/2000/svg" viewBox="0 0 800 800">
  <defs>
    <style>
      .cls-1 {
        fill: none;
        stroke: #fff;
        stroke-linecap: round;
        stroke-linejoin: round;
        stroke-width: 45px;
      }
    </style>
  </defs>
  <g id="SVGRepo_iconCarrier" data-name="SVGRepo iconCarrier">
    <path class="cls-1" d="M400,86.05h-104.65c-57.8,0-104.65,46.85-104.65,104.65s46.85,104.65,104.65,104.65M400,86.05v209.3M400,86.05h104.65c57.8,0,104.65,46.85,104.65,104.65s-46.85,104.65-104.65,104.65M400,295.35h-104.65M400,295.35h104.65M400,295.35v209.3M295.35,295.35c-57.8,0-104.65,46.85-104.65,104.65s46.85,104.65,104.65,104.65M504.65,295.35c57.8,0,104.65,46.85,104.65,104.65s-46.85,104.65-104.65,104.65-104.65-46.85-104.65-104.65,46.85-104.65,104.65-104.65ZM400,504.65h-104.65M400,504.65v104.65c0,57.8-46.85,104.65-104.65,104.65s-104.65-46.85-104.65-104.65,46.85-104.65,104.65-104.65"/>
  </g>
</svg>