<?xml version="1.0" encoding="UTF-8"?>
<svg xmlns="http://www.w3.org/2000/svg" viewBox="0 0 800 800">
  <defs>
    <style>
      .cls-1 {
        fill: #fff;
      }
    </style>
  </defs>
  <g id="Ebene_1" data-name="Ebene 1" focusable="false">
    <g id="SVGRepo_iconCarrier" data-name="SVGRepo iconCarrier">
      <path class="cls-1" d="M552.64,566.34c2.1.13,4.37.4,6.63.4,32.09.03,64.21-.16,96.3.16,7.03.07,9.13-2.33,8.77-9.06-.46-8.77-.1-17.57-.1-28.41,36.42,26.8,71.63,52.68,107.76,79.28-35.86,26.41-71.07,52.32-107.76,79.35v-27.1c0-10.9,0-10.94-10.61-10.94H38.09q-9.92,0-9.92-9.98c0-21.64.3-43.29-.16-64.9-.16-7.03,2.1-8.6,8.83-8.57,110.32.2,220.64.36,330.96.07,56.56-.16,101.19-23.58,130.71-72.32,53.27-88.02-2.27-203.3-104.34-218.14-78.82-11.46-152.1,41.45-165.46,121.62-1.41,8.34-1.51,16.91-2.33,26.96,12.91-1.74,24.6-3.35,37.84-5.12-20.72,40.07-40.73,78.76-61.02,117.97-31.1-32.05-61.74-63.62-91.7-94.49,7.52-1.25,17.51-2.69,27.39-4.76,1.87-.4,4.63-3.42,4.57-5.16-.56-20.99.89-41.74,4.99-62.34.13-.62-.16-1.35-.36-2.56-20.03-3.42-38.62-10.64-55.47-22.27-41.19-28.51-62.73-81.55-52.61-129.89,11-52.68,50.74-92.06,102.11-101.78,33.3-6.27,64.18-.3,92.85,17.31,5.06,3.12,8.15,3.58,11.46-1.84,1.94-3.19,4.86-5.75,8.21-9.62,4.17,16.82,8.08,32.55,11.95,48.28,1.31,5.29,2.33,10.67,3.88,15.9,1.68,5.65-.03,8.18-6.01,7.78-17.28-1.18-34.58-2.23-51.86-3.38-4.27-.3-8.51-.76-13.99-1.28,4.27-5.39,8.15-10.21,12.38-15.5-9.33-7.1-19.61-10.64-30.31-12.38-51.76-8.47-97.38,31.3-96.33,83.68.79,40.2,34.68,76.13,74.72,79.55,5.19.43,7-2.2,9-6.08,28.38-54.45,71.11-92.95,129.24-112.98,134.49-46.37,274.9,36.72,300.81,172.72,12.78,66.97-1.77,128.12-42.4,182.94-1.12,1.51-2.13,3.12-3.12,4.73-.2.3.07.89.23,2.13l-.16.03Z"/>
    </g>
  </g>
</svg>