<?xml version="1.0" encoding="UTF-8"?>
<svg id="Uploaded_to_svgrepo.com" data-name="Uploaded to svgrepo.com" xmlns="http://www.w3.org/2000/svg" viewBox="0 0 800 800">
  <defs>
    <style>
      .cls-1 {
        fill-rule: evenodd;
      }

      .cls-1, .cls-2 {
        fill: #3dcfb6;
      }
    </style>
  </defs>
  <g id="SVGRepo_iconCarrier" data-name="SVGRepo iconCarrier">
    <g id="SVGRepo_iconCarrier-2" data-name="SVGRepo iconCarrier">
      <path class="cls-1" d="M402.22,296.24c-4.66-2.21-10.05-2.21-14.71,0l-162.93,77.16c-8.74,4.15-12.53,14.74-8.46,23.66,1.74,3.81,4.73,6.86,8.46,8.63l33.38,15.81c-1.8,2.86-2.75,6.19-2.75,9.59v77.16c0,3.96,1.3,7.8,3.68,10.92l13.78-10.92-13.78,10.92.02.05.02.02.07.09.19.24c.76.98,1.56,1.93,2.4,2.85,1.58,1.8,3.84,4.23,6.8,7.1,5.91,5.7,14.66,13.18,26.35,20.56,23.46,14.86,58.63,29.39,105.95,29.39s80.07-14.6,101.13-30.06c8.43-6.14,16.07-13.34,22.74-21.42,2.74-3.36,5.24-6.92,7.49-10.64l.16-.28.07-.09v-.05h.02s0-.05-15.25-8.69l15.25,8.67c1.44-2.65,2.21-5.63,2.21-8.67v-77.16c0-3.4-.95-6.73-2.75-9.59l33.38-15.81c8.74-4.15,12.53-14.74,8.46-23.66-1.74-3.81-4.73-6.86-8.46-8.63l-162.93-77.16h0ZM499.61,436.75l-97.39,46.11c-4.66,2.21-10.05,2.21-14.71,0l-97.39-46.11v64.65c6.98,7.01,14.71,13.19,23.04,18.42,18.71,11.87,47.55,24.05,87.52,24.05s65.41-12.11,80.72-23.36c6.86-4.98,12.99-10.94,18.2-17.69v-66.08ZM394.87,447.08l-121.48-57.53,121.48-57.53,121.48,57.53-121.48,57.53Z"/>
    </g>
  </g>
  <g id="SVGRepo_iconCarrier-3" data-name="SVGRepo iconCarrier">
    <path class="cls-2" d="M770.29,627.77c-3.54-11.94-16.4-19.07-29.08-16.12l-60.35,15.43c33.02-46.27,53.05-99.79,58.17-155.49,10.04-105.68-33.42-209.59-117.06-279.87-9.9-7.78-24.46-6.87-33.2,2.07-8.82,9.55-7.85,24.08,2.18,32.48,72.07,60.46,109.52,149.95,100.82,240.94-4.15,47.26-20.83,92.74-48.47,132.22l-6.06-57.82c1.69-12.62-7.7-24.16-20.97-25.77-13.28-1.61-25.42,7.31-27.11,19.93-.43,3.19-.15,6.43.82,9.52l12.12,148.34,151.48-38.24c12.47-3.47,19.84-15.66,16.72-27.64Z"/>
    <path class="cls-2" d="M63.07,415.85c3.22,1.97,6.86,3.23,10.66,3.69,13.16,1.64,25.27-7.09,27.14-19.58,20.77-145.76,156.21-251.7,310.71-243.02l-54.29,35.24c-10.69,7.65-12.83,22.1-4.77,32.26,3.91,4.93,9.73,8.16,16.17,8.97,5.46.47,10.93-.82,15.51-3.69l129.18-84.31-110.52-105.5c-7.32-10.65-22.33-13.65-33.54-6.7-11.21,6.95-14.37,21.23-7.05,31.88,1.8,2.63,4.15,4.88,6.9,6.61l41.2,39.16C232.06,102.76,76.83,225.59,52.89,393.73c-1.27,8.61,2.67,17.16,10.18,22.11Z"/>
    <path class="cls-2" d="M485.27,711.84c-37.85,11.49-77.77,15.49-117.3,11.75-97.75-9.11-184.5-63.39-231.94-145.12l60.35,21.42c13.19,2.17,25.73-6.22,28.02-18.76,1.7-9.33-2.78-18.71-11.3-23.62l-111.24-39.16h0l-35.63-12.21-26.9,146.27c-1.94,12.14,6.49,23.59,19.15,26.03h4.12c11.78.2,22-7.67,24.24-18.66l10.18-55.28c55.62,92.6,154.96,153.89,266.6,164.47,46,4.33,92.44-.37,136.45-13.82,12.37-4.87,18.24-18.34,13.12-30.1-4.5-10.34-16.17-16.1-27.66-13.67l-.24.46Z"/>
  </g>
</svg>