<?xml version="1.0" encoding="UTF-8"?>
<svg id="Ebene_1" data-name="Ebene 1" xmlns="http://www.w3.org/2000/svg" viewBox="0 0 24 24">
  <defs>
    <style>
      .cls-1 {
        fill: #fff;
      }
    </style>
  </defs>
  <path class="cls-1" d="M12,1.03C5.78,1.03.75,6.07.75,12.28c0,4.97,3.22,9.19,7.69,10.67.56.11.77-.24.77-.54,0-.27,0-.97-.01-1.91-3.13.68-3.79-1.51-3.79-1.51-.51-1.3-1.25-1.65-1.25-1.65-1.02-.7.08-.68.08-.68,1.13.08,1.72,1.16,1.72,1.16,1,1.72,2.63,1.22,3.28.94.1-.73.39-1.22.71-1.5-2.5-.28-5.12-1.25-5.12-5.56,0-1.23.44-2.23,1.16-3.02-.13-.28-.51-1.43.1-2.98,0,0,.94-.3,3.09,1.15.9-.25,1.86-.37,2.81-.38.96,0,1.91.13,2.81.38,2.14-1.45,3.08-1.15,3.08-1.15.6,1.55.22,2.69.11,2.98.72.79,1.15,1.79,1.15,3.02,0,4.32-2.63,5.27-5.13,5.55.39.34.76,1.03.76,2.08,0,1.51-.01,2.71-.01,3.08,0,.3.2.65.77.53,4.5-1.48,7.72-5.69,7.72-10.66,0-6.21-5.04-11.25-11.25-11.25"/>
</svg>