<?xml version="1.0" encoding="UTF-8"?>
<svg id="Ebene_1" data-name="Ebene 1" xmlns="http://www.w3.org/2000/svg" viewBox="0 0 800 800">
  <defs>
    <style>
      .cls-1 {
        fill: #fff;
      }
    </style>
  </defs>
  <g id="SVGRepo_iconCarrier" data-name="SVGRepo iconCarrier">
    <path class="cls-1" d="M760.7,366.58L433.33,39.23c-8.75-8.72-20.83-14.13-34.17-14.13s-25.43,5.4-34.17,14.13h0l-67.83,67.95,86.23,86.22c5.5-1.93,11.82-3.02,18.42-3.02,31.72,0,57.42,25.7,57.42,57.43,0,6.73-1.15,13.15-3.28,19.15l.12-.4,83.05,83.1c5.55-1.98,11.98-3.12,18.65-3.12,31.7,0,57.4,25.7,57.4,57.4s-25.7,57.4-57.4,57.4-57.4-25.7-57.4-57.4c0-7.82,1.57-15.28,4.4-22.08l-.15.38-77.75-77.35v203.85c19.1,9.63,31.97,29.08,31.97,51.53,0,31.75-25.75,57.5-57.5,57.5s-57.5-25.75-57.5-57.5c0-15.85,6.4-30.18,16.78-40.57h0c5.28-5.28,11.55-9.55,18.53-12.55l.38-.15v-205.85c-21.05-8.85-35.55-29.33-35.55-53.15,0-8,1.62-15.6,4.57-22.53l-.15.38-84.72-85.12L39.18,365.05c-8.7,8.77-14.05,20.85-14.05,34.2s5.38,25.43,14.07,34.2l327.4,327.3c8.72,8.75,20.8,14.15,34.15,14.15s25.4-5.4,34.15-14.15l325.85-325.85c8.75-8.73,14.17-20.83,14.17-34.15s-5.42-25.43-14.17-34.15h0l-.05-.03Z"/>
  </g>
</svg>