<?xml version="1.0" encoding="UTF-8"?>
<svg id="Ebene_1" data-name="Ebene 1" xmlns="http://www.w3.org/2000/svg" viewBox="0 0 800 800">
  <defs>
    <style>
      .cls-1 {
        fill: #fff;
      }
    </style>
  </defs>
  <g id="SVGRepo_iconCarrier" data-name="SVGRepo iconCarrier">
    <g id="_2069a460dcf28295e231f3111e035a9d" data-name="2069a460dcf28295e231f3111e035a9d">
      <path class="cls-1" d="M521.02,417.94c1.08,5.35,1.61,11.78,1.61,17.14v39.09c0,6.97-.53,13.39-2.14,19.28-6.42,28.39-29.99,46.59-56.77,46.59-41.77,0-65.34-34.81-65.34-82.47s23.57-86.22,65.87-86.22c29.99,0,50.88,20.89,56.77,46.59ZM778,148v504c0,69.3-56.7,126-126,126H148c-69.3,0-126-56.7-126-126V148c0-69.3,56.7-126,126-126h504c69.3,0,126,56.7,126,126ZM275.22,226.22h-65.87v360.96h65.87V226.22ZM590.65,587.17c-1.08-17.68-2.15-46.59-2.15-73.37V206.94h-65.87v147.81h-1.07c-11.77-19.28-37.49-34.27-73.37-34.27-62.66,0-117.29,51.95-116.75,139.24,0,80.33,49.27,133.35,111.39,133.35,38.02,0,69.62-18.2,85.15-47.13h1.07l2.68,41.24h58.91Z"/>
    </g>
  </g>
</svg>