<?xml version="1.0" encoding="UTF-8"?>
<svg id="Ebene_1" data-name="Ebene 1" xmlns="http://www.w3.org/2000/svg" viewBox="0 0 132.23 103.19">
  <defs>
    <style>
      .cls-1 {
        fill: #fff;
        stroke: #fff;
        stroke-miterlimit: 10;
      }
    </style>
  </defs>
  <path class="cls-1" d="M31.15,25.04l1.21-.33c1.67-.46,3.41.52,3.87,2.2l9.56,34.69c4.12,14.97-1.97,21.6-11.67,24.27-1.58.44-3.43.72-5.09.83-1.69.11-3.16-1.18-3.31-2.87h0c-.15-1.74,1.14-3.24,2.88-3.41,1.02-.09,2.11-.28,3.22-.59,6.52-1.8,9.56-5.78,6.52-16.83l-9.39-34.11c-.46-1.67.52-3.41,2.2-3.87Z"/>
  <path class="cls-1" d="M63.54,18.43l3.15,29.82c.7,7.57,1.15,14.28,1.18,20.53l.25.06c2.8-5.4,6.31-11.16,10.55-17.73l15.26-22.97c.85-1.28,2.41-1.9,3.91-1.54l3.52.84c1.89.45,3.1,2.29,2.77,4.2l-8.74,50.48c-.36,2.09-2.41,3.44-4.47,2.95h0c-1.89-.45-3.11-2.3-2.76-4.22l3.9-21.91c1.47-8.03,3.23-17.69,5-24.76l-.25-.06c-3.53,6.2-7.58,12.73-12.32,19.9l-15.2,23.06c-.85,1.29-2.41,1.91-3.92,1.55l-.51-.12c-1.53-.36-2.66-1.66-2.81-3.23l-2.5-26.66,3.97-30.18Z"/>
  <rect class="cls-1" x="1.16" y="49.41" width="97.74" height="3.61" rx="1.8" ry="1.8" transform="translate(-7.93 93.24) rotate(-81.61)"/>
  <path class="cls-1" d="M15.56,51.11c0,.41-.21.74-.57.94l-6.56,3.78,5.57,3.57c.13.08.21.2.21.37,0,.28-.21.65-.66,1.06-.49.45-.9.7-1.27.7-.12,0-.29-.08-.57-.21l-6.35-4.1c-.29-.21-.66-1.15-.66-1.84,0-.25.04-.45.16-.66.13-.12.29-.28.54-.41l8.94-5.17s.12-.04.25-.04c.33,0,.62.37.82,1.11.12.33.16.61.16.9Z"/>
  <path class="cls-1" d="M116.67,59.51c0-.41.21-.74.57-.94l6.56-3.78-5.57-3.57c-.13-.08-.21-.2-.21-.37,0-.28.21-.65.66-1.06.49-.45.9-.7,1.27-.7.12,0,.29.08.57.21l6.35,4.1c.29.21.66,1.15.66,1.84,0,.25-.04.45-.16.66-.13.12-.29.28-.54.41l-8.94,5.17s-.12.04-.25.04c-.33,0-.62-.37-.82-1.11-.12-.33-.16-.61-.16-.9Z"/>
</svg>