<?xml version="1.0" encoding="UTF-8"?>
<svg id="Ebene_1" data-name="Ebene 1" xmlns="http://www.w3.org/2000/svg" viewBox="0 0 800 800">
  <defs>
    <style>
      .cls-1 {
        fill: none;
      }

      .cls-2 {
        fill: #fff;
      }
    </style>
  </defs>
  <g id="SVGRepo_iconCarrier" data-name="SVGRepo iconCarrier">
    <rect class="cls-1" x="-9" y="-9" width="818" height="818"/>
    <path class="cls-2" d="M706.75,400c-.29-69.74-24.33-137.3-68.17-191.55v383.44c44.46-54.03,68.58-121.92,68.17-191.89M591.89,638.58H208.45c27.58,20.77,58.3,36.99,91,48.06,32.13,12.35,66.13,19.15,100.55,20.11,34.99-.73,69.59-7.53,102.25-20.11,32.18-11.31,62.41-27.52,89.64-48.06M365.92,570.42l-136.33-272.67v272.67h136.33M570.42,297.75l-136.33,272.67h136.33v-272.67M400,486.23l127.81-256.65h-255.62l127.81,256.65M591.89,161.42c-111.65-90.89-271.78-90.89-383.44,0h383.44M161.42,591.89V208.45c-43.84,54.24-67.88,121.81-68.17,191.55-.41,69.97,23.71,137.86,68.17,191.89M774.92,400c1.72,99.77-38.02,195.79-109.75,265.17-69.38,71.73-165.39,111.47-265.17,109.75-99.76,1.64-195.75-38.09-265.17-109.75C63.1,595.79,23.36,499.77,25.08,400c-1.64-99.76,38.09-195.75,109.75-265.17C204.25,63.17,300.24,23.44,400,25.08c99.77-1.72,195.79,38.02,265.17,109.75,71.66,69.42,111.39,165.41,109.75,265.17Z"/>
  </g>
</svg>