<?xml version="1.0" encoding="UTF-8"?>
<svg id="Capa_1" data-name="Capa 1" xmlns="http://www.w3.org/2000/svg" viewBox="0 0 800 800">
  <defs>
    <style>
      .cls-1 {
        fill: #fff;
      }
    </style>
  </defs>
  <g id="SVGRepo_iconCarrier" data-name="SVGRepo iconCarrier">
    <g>
      <path class="cls-1" d="M748.76,479.69l-25.97-15c4.36-21.7,6.57-43.42,6.57-64.7s-2.17-43.33-6.46-64.76l25.87-14.93c8.01-4.62,13.74-12.09,16.13-21.03,2.39-8.93,1.17-18.27-3.46-26.28l-70.74-122.52c-4.63-8.01-12.09-13.74-21.03-16.13-8.94-2.39-18.27-1.17-26.28,3.46l-25.89,14.95c-32.7-28.77-71.18-51.03-112.15-64.88v-29.76c0-19.1-15.54-34.63-34.63-34.63h-141.47c-19.1,0-34.63,15.54-34.63,34.63v29.76c-40.75,13.8-79.18,36.09-112,64.97l-26.04-15.03c-8.01-4.63-17.34-5.85-26.28-3.46-8.93,2.39-16.4,8.12-21.03,16.13l-70.74,122.52c-4.63,8.01-5.85,17.34-3.46,26.28s8.12,16.4,16.13,21.03l25.97,15c-4.36,21.7-6.57,43.42-6.57,64.7s2.17,43.33,6.46,64.76l-25.87,14.93c-16.54,9.55-22.22,30.77-12.68,47.31l70.74,122.52c9.55,16.54,30.77,22.22,47.31,12.67l25.88-14.95c32.7,28.77,71.18,51.03,112.15,64.88v29.75c0,19.1,15.54,34.63,34.63,34.63h141.47c19.1,0,34.63-15.54,34.63-34.63v-29.76c40.75-13.8,79.18-36.09,112-64.97l26.04,15.03c16.54,9.55,37.76,3.86,47.31-12.67l70.74-122.52c9.55-16.54,3.86-37.76-12.68-47.31ZM711.47,505.5l-64.36,111.48c-3.14,5.44-10.13,7.31-15.57,4.17l-30.03-17.34c-3.81-2.2-8.62-1.67-11.86,1.33-30.7,28.39-67.63,49.81-106.81,61.95-4.21,1.3-7.08,5.2-7.08,9.61v34.39c0,6.28-5.11,11.4-11.4,11.4h-128.73c-6.28,0-11.4-5.11-11.4-11.4v-34.39c0-4.41-2.87-8.3-7.08-9.61-39.42-12.21-76.4-33.61-106.94-61.87-1.91-1.76-4.36-2.68-6.83-2.68-1.72,0-3.46.44-5.03,1.35l-29.89,17.25c-5.44,3.14-12.43,1.27-15.57-4.17l-64.36-111.48c-3.14-5.44-1.27-12.43,4.17-15.57l29.86-17.24c3.81-2.2,5.75-6.63,4.78-10.92-4.6-20.39-6.93-41.17-6.93-61.77s2.37-41.01,7.04-61.71c.97-4.29-.97-8.72-4.78-10.92l-29.97-17.3c-2.64-1.52-4.52-3.98-5.31-6.92-.79-2.94-.38-6.01,1.14-8.65l64.36-111.48c1.52-2.64,3.98-4.52,6.92-5.31,2.94-.79,6.01-.38,8.65,1.14l30.03,17.34c3.82,2.2,8.62,1.67,11.86-1.33,30.7-28.39,67.63-49.81,106.81-61.95,4.21-1.3,7.08-5.2,7.08-9.61v-34.39c0-6.28,5.11-11.4,11.4-11.4h128.73c6.28,0,11.4,5.11,11.4,11.4v34.39c0,4.41,2.87,8.3,7.08,9.61,39.42,12.21,76.4,33.6,106.94,61.87,3.23,2.99,8.04,3.53,11.86,1.33l29.89-17.26c2.64-1.52,5.71-1.93,8.65-1.14,2.94.79,5.4,2.67,6.92,5.31l64.36,111.48c1.52,2.64,1.93,5.71,1.14,8.65s-2.67,5.4-5.31,6.92l-29.86,17.24c-3.81,2.2-5.75,6.63-4.78,10.92,4.6,20.39,6.93,41.17,6.93,61.77s-2.37,41.01-7.04,61.71c-.97,4.29.97,8.72,4.78,10.92l29.97,17.3c5.44,3.14,7.31,10.13,4.17,15.57Z"/>
      <path class="cls-1" d="M400,224c-97.05,0-176,78.95-176,176s78.95,176,176,176,176-78.95,176-176-78.95-176-176-176ZM400,538c-76.09,0-138-61.91-138-138s61.91-138,138-138,138,61.91,138,138-61.91,138-138,138Z"/>
    </g>
  </g>
</svg>