<?xml version="1.0" encoding="UTF-8"?>
<svg id="Ebene_1" data-name="Ebene 1" xmlns="http://www.w3.org/2000/svg" viewBox="0 0 160 128.14">
  <defs>
    <style>
      .cls-1 {
        fill: #fff;
      }
    </style>
  </defs>
  <path class="cls-1" d="M35.49,29.93l1.55-.43c2.13-.59,4.34.66,4.92,2.8l12.16,44.17c5.25,19.06-2.51,27.5-14.86,30.9-2.01.55-4.36.92-6.48,1.06-2.16.14-4.02-1.5-4.21-3.65h0c-.19-2.22,1.46-4.13,3.67-4.34,1.29-.12,2.68-.36,4.11-.75,8.31-2.29,12.17-7.36,8.3-21.42l-11.96-43.42c-.59-2.13.66-4.34,2.8-4.92Z"/>
  <path class="cls-1" d="M76.73,21.52l4.02,37.97c.89,9.64,1.46,18.18,1.5,26.13l.32.08c3.57-6.87,8.04-14.21,13.44-22.58l19.43-29.24c1.08-1.63,3.07-2.41,4.98-1.96l4.48,1.07c2.4.57,3.94,2.91,3.52,5.35l-11.13,64.26c-.46,2.66-3.07,4.37-5.69,3.75h0c-2.41-.57-3.95-2.93-3.52-5.37l4.97-27.9c1.87-10.22,4.11-22.52,6.37-31.52l-.32-.08c-4.49,7.9-9.65,16.21-15.68,25.33l-19.35,29.36c-1.08,1.64-3.07,2.43-4.99,1.98l-.65-.15c-1.95-.46-3.38-2.12-3.57-4.11l-3.19-33.95"/>
  <rect class="cls-1" x="-2.68" y="60.96" width="124.42" height="4.59" rx="1.97" ry="1.97" transform="translate(-11.73 112.92) rotate(-81.61)"/>
  <path class="cls-1" d="M15.64,63.12c0,.52-.26.94-.73,1.2l-8.35,4.81,7.1,4.54c.16.1.26.25.26.47,0,.36-.26.83-.84,1.35-.62.57-1.15.89-1.62.89-.15,0-.36-.1-.73-.27l-8.09-5.21c-.37-.27-.84-1.47-.84-2.35,0-.32.05-.57.2-.84.16-.15.37-.36.68-.52l11.38-6.58c.05-.05.15-.05.31-.05.41,0,.78.47,1.05,1.42.15.42.2.78.2,1.15Z"/>
  <path class="cls-1" d="M144.36,73.82c0-.52.26-.94.73-1.2l8.35-4.81-7.1-4.54c-.16-.1-.26-.25-.26-.47,0-.36.26-.83.84-1.35.62-.57,1.15-.89,1.62-.89.15,0,.36.1.73.27l8.09,5.21c.37.27.84,1.47.84,2.35,0,.32-.05.57-.2.84-.16.15-.37.36-.68.52l-11.38,6.58c-.05.05-.15.05-.31.05-.41,0-.78-.47-1.05-1.42-.15-.42-.2-.78-.2-1.15Z"/>
</svg>